<svg width="32" height="32" viewBox="0 0 32 32" fill="none" xmlns="http://www.w3.org/2000/svg">
<path fill-rule="evenodd" clip-rule="evenodd" d="M17.168 16.4453L18.8321 17.5547L15.8685 22H20.9557L15.4773 29.5855L13.856 28.4145L17.0442 24H12.1315L17.168 16.4453Z" fill="url(#paint0_linear_204_18)"/>
<path fill-rule="evenodd" clip-rule="evenodd" d="M19.6021 5.48645C20.5601 2.9245 23.3252 1.46214 26.02 2.18469C26.3226 2.26583 26.6122 2.37207 26.8872 2.49914C25.8146 2.67334 24.8946 3.46376 24.6108 4.5841C24.4706 5.13806 24.5061 5.69522 24.6812 6.19739C24.6838 6.20764 24.6852 6.21841 24.688 6.22864L24.7612 6.44641C24.8454 6.66067 24.9631 6.86238 25.1108 7.04016L25.2671 7.2091C25.344 7.28373 25.427 7.35192 25.5142 7.41418C25.8323 7.68587 26.215 7.89332 26.6479 8.00305C28.0027 8.34585 29.3723 7.63974 29.9116 6.39856C30.0531 7.16142 30.0319 7.96731 29.8179 8.76672C29.3747 10.4218 28.2048 11.687 26.7446 12.3146C25.718 11.4925 24.4166 10.9991 22.9995 10.9991C22.9326 10.9992 22.8657 11.0018 22.7993 11.004C22.7325 10.6738 22.6478 10.3499 22.5493 10.0323C22.8966 10.3052 23.3031 10.5143 23.7563 10.6359C24.9092 10.945 26.0826 10.6151 26.9038 9.86438C26.8238 9.86685 26.7437 9.86842 26.6636 9.86633C26.1395 9.85255 25.6222 9.74122 25.1401 9.53821L24.937 9.44543C24.3981 9.18378 23.9197 8.80961 23.5366 8.34875C23.2016 7.94542 22.945 7.48185 22.7798 6.98547L22.7153 6.7716C22.5566 6.19353 22.5229 5.58735 22.6167 4.99524C22.6372 4.86602 22.6645 4.73773 22.6968 4.61145C22.0697 5.05035 21.5873 5.70495 21.3735 6.50305C21.2969 6.78953 21.2598 7.07723 21.2583 7.36047C20.7856 6.66844 20.229 6.03869 19.6021 5.48645Z" fill="url(#paint1_linear_204_18)"/>
<path fill-rule="evenodd" clip-rule="evenodd" d="M10 23.665C5.40237 22.4598 2 18.1419 2 13C2 6.92487 6.74949 2 12.6083 2C17.469 2 21.5661 5.38976 22.821 10.0139C22.9626 10.0047 23.1054 10 23.2493 10C26.9776 10 30 13.134 30 17C30 20.866 26.9776 24 23.2493 24C23.1658 24 23.0827 23.9984 23 23.9953V22H23.3029V21.9996C25.8359 21.9695 28 19.8105 28 17C28 14.1696 25.8053 12 23.2493 12C22.5272 12 21.8339 12.1732 21.2108 12.4855C21.1791 11.9037 21.0937 11.3367 20.9599 10.7899L20.9569 10.7911C20.0091 6.85004 16.5839 4 12.6083 4C7.92179 4 4 7.96046 4 13C4 17.0657 6.55261 20.4291 10 21.5772V23.665Z" fill="url(#paint2_linear_204_18)"/>
<defs>
<linearGradient id="paint0_linear_204_18" x1="16.5436" y1="16.4453" x2="16.5436" y2="29.5855" gradientUnits="userSpaceOnUse">
<stop stop-color="#F5BD52"/>
<stop offset="1" stop-color="#F5DA79"/>
</linearGradient>
<linearGradient id="paint1_linear_204_18" x1="24.8018" y1="2.00024" x2="24.8018" y2="12.3146" gradientUnits="userSpaceOnUse">
<stop stop-color="#F5BD52"/>
<stop offset="1" stop-color="#F5DA79"/>
</linearGradient>
<linearGradient id="paint2_linear_204_18" x1="16" y1="2" x2="16" y2="24" gradientUnits="userSpaceOnUse">
<stop stop-color="#95B6F6"/>
<stop offset="1" stop-color="#5193DE"/>
</linearGradient>
</defs>
</svg>
